<svg version="1" xmlns="http://www.w3.org/2000/svg" viewBox="0 0 202 85"><path d="M154.3 24.9l1.4 3.9h-3.1l1.7-3.9zm-5.3 7.9h3.6v-.6l-1.3-.2.9-2.1h3.9l.8 2.1-1.3.2v.6h4.3v-.6l-1-.2-3.7-9.2H154l-3.9 9.2-1.1.2v.6zm-6.2 3.5c1.3-.6 2.7-2.3 2.7-4.6v-8l1.2-.2v-.6h-4.3v.6l1.2.2v8.6c0 1.2-.6 2.5-1.3 3.3l.5.7zm-7.1-3.3c.9 0 2.2-.1 3.1-.4l.4-2.4-.9-.1-.8 1.6c-.5.2-1 .3-1.6.3-2.2 0-3.5-1.9-3.5-4.5s1.5-4 3.4-4c.6 0 1.3.1 1.8.4l.4 1.6h.9l.1-2.5c-.9-.2-1.9-.4-2.9-.4-2.9 0-5.6 1.6-5.6 5.1-.1 3.5 2.3 5.3 5.2 5.3m-13.5-8.1l1.4 3.9h-3.1l1.7-3.9zm-5.2 7.9h3.6v-.6l-1.3-.2.9-2.1h3.9l.8 2.1-1.3.2v.6h4.3v-.6l-1-.2-3.7-9.2H122l-3.9 9.2-1.1.2v.6zm-4.6-5.1c0 2.7-1.4 4.3-4.4 4.3h-.8v-8.3h.7c3.2 0 4.5 1.7 4.5 4m2.1-.1c0-3.3-2.7-4.8-5.8-4.8-1.3 0-4.5.1-4.5.1v.6l1.2.2v8.2l-1.2.2v.6h4.1c3.8.2 6.2-2 6.2-5.1M98.4 33h.8v-7.5c0-.6.1-1.7.1-1.7l1.2-.3v-.6h-3.6v.6l1.2.3v5.9l-5.6-6.9h-3.1v.6l1.6.6v6.2c0 .7-.1 1.7-.1 1.7l-1.2.3v.6h3.7v-.6l-1.2-.3s-.1-1-.1-1.7v-5.1l6.3 7.9zm-17.6 0c3.2 0 4.1-1.9 4.1-4.6v-4.7l1.1-.2v-.6h-3.7v.6l1.2.2s.1 2.1.1 4.6c0 2.4-.3 3.7-2.6 3.7-2 0-2.5-1.2-2.5-3.3v-5.1l1.3-.2v-.6h-4.3v.6l1.1.2v5.2c0 3 1.2 4.2 4.2 4.2m-16.5-.2h4.6v-.6l-1.6-.2v-3.6h2.9l.3 1h.8v-2.9h-.8l-.3 1h-2.9v-3.7h3.5l.4 1.5h.8v-2.4h-7.8v.6l1.2.2v8.2l-1.2.2v.7zm129.3 15.5l1.4 3.9h-3l1.6-3.9zm-5.2 7.9h3.6v-.6l-1.3-.2.9-2.1h3.9l.8 2.1-1.3.2v.6h4.3v-.6l-1-.2-3.7-9.2h-1.1l-3.9 9.2-1.1.2v.6zm-11.5.1l2.4-5.8 2.5 5.8h.8l3.2-9.1 1-.3v-.6h-3.6v.6l1.3.3-2.1 6.5-2.8-6.5 1.2-.3v-.6h-3.9v.6l.9.3.9 2-1.9 4.5-2.5-6.5 1.2-.3v-.6h-4.1v.6l1 .3 3.7 9.1h.8zm-15.6-.1h4.7v-.6l-1.4-.2v-8.1h2.2l.4 1.7.9-.2-.1-2.5h-8.8l-.1 2.5.9.2.5-1.7h2.2v8.1l-1.4.2v.6zm-9.2.2c.9 0 2.2-.1 3.1-.4l.4-2.4-.9-.1-.8 1.6c-.5.2-1 .3-1.6.3-2.2 0-3.5-1.9-3.5-4.5s1.5-4 3.4-4c.6 0 1.3.1 1.8.4l.4 1.6h.9l.1-2.5c-.9-.2-1.9-.4-2.9-.4-2.9 0-5.6 1.6-5.6 5.1-.2 3.5 2.2 5.3 5.2 5.3m-13.8-.2h4.3v-.6l-1.2-.2v-8.2l1.2-.2v-.6h-4.3v.6l1.2.2v8.2l-1.2.2v.6zm-12.3 0h7.7l.4-2.6-1-.1-.7 1.8h-4.2l5.7-8.2v-.9h-7.4v2.7h1l.4-1.8h3.9l-5.7 8.2v.9zm-5.9-5.1c0 2.7-1.4 4.3-4.4 4.3h-.8v-8.3h.7c3.3 0 4.5 1.7 4.5 4m2.1-.1c0-3.3-2.7-4.8-5.8-4.8-1.3 0-4.5.1-4.5.1v.6l1.2.2v8.2l-1.2.2v.6h4.1c3.8.2 6.2-2 6.2-5.1m-22.6 5.2h7.6l.5-2.4-.9-.1-.8 1.7h-3.4v-3.8h2.8l.3 1h.7v-2.9h-.7l-.3 1h-2.8v-3.5h3.5l.4 1.5h.9v-2.4h-7.8v.6l1.2.2v8.2l-1.2.2v.7zm-8.9 0H95v-.6l-1.2-.2v-8.2L95 47v-.6h-4.3v.6l1.2.2v8.2l-1.2.2v.6zm-12.3 0h7.7l.4-2.6-1-.1-.7 1.8h-4.2l5.7-8.2v-.9h-7.4v2.7h1l.4-1.8h3.9l-5.7 8.2v.9zm-5.9-5.1c0 2.7-1.4 4.3-4.4 4.3h-.8v-8.3h.7c3.2 0 4.5 1.7 4.5 4m2.1-.1c0-3.3-2.7-4.8-5.8-4.8-1.3 0-4.5.1-4.5.1v.6l1.2.2v8.2l-1.2.2v.6h4.1c3.8.2 6.2-2 6.2-5.1m118.6 28c-2 0-3.3-2.2-3.3-4.6 0-2.1 1.2-3.8 3.1-3.8 2 0 3.4 2 3.4 4.4 0 2-1 4-3.2 4m-.3 1c3.5 0 5.5-2.5 5.5-5.3 0-3.1-2.3-5-5.3-5s-5.4 2.2-5.4 5.2c.2 2.8 2.4 5.1 5.2 5.1m-11.8 0c1.2 0 2.6-.2 3.5-.5v-3.3l.7-.3v-.6h-3.8v.6l1.2.3v2.7c-.5.1-1 .2-1.5.2-2.3 0-3.5-2.1-3.5-4.5 0-2.6 1.6-4 3.7-4 .6 0 1.2.1 1.8.4l.4 1.6h.9l.1-2.5c-.9-.1-2-.4-3-.4-3.1 0-5.9 1.6-5.9 5.1 0 3.4 2.4 5.2 5.4 5.2m-16-.2h7.6l.5-2.4-.9-.1-.8 1.7h-3.4v-3.8h2.8l.3 1h.7v-2.9h-.7l-.3 1h-2.8v-3.5h3.5l.4 1.5h.9v-2.4h-7.8v.6l1.2.2v8.2l-1.2.2v.7zm-12.2.1l2.4-5.8 2.5 5.8h.8l3.2-9.1 1-.3v-.6h-3.6v.6l1.3.3-2.1 6.5-2.8-6.5 1.2-.3v-.6h-3.9v.6l.9.3.9 2-1.9 4.5-2.5-6.5 1.2-.3v-.6h-4.1v.6l1 .3 3.7 9.1h.8zm-12.5-.9c-2 0-3.3-2.2-3.3-4.6 0-2.1 1.2-3.8 3.1-3.8 2 0 3.4 2 3.4 4.4 0 2-.9 4-3.2 4m-.2 1c3.5 0 5.5-2.5 5.5-5.3 0-3.1-2.3-5-5.3-5-3.1 0-5.4 2.2-5.4 5.2.1 2.8 2.3 5.1 5.2 5.1m-13.6-5.4v-4h.5c1.7 0 2.4.8 2.4 1.8.1 1.4-.9 2.2-2.9 2.2m6.4 4.7c-1.4-.6-2.8-2.9-3.6-4.2 1.3-.5 2.2-1.4 2.2-2.7 0-1.7-1.7-2.7-4-2.7-1.2 0-3.8.1-3.8.1v.6l1.2.2v8.2l-1.2.2v.6h4.2V79l-1.2-.2v-3.4c.4 0 .8 0 1.2-.1.9 2.7 2.3 4.7 5 4.5v-.5zm-17.4.7c3.2 0 4.1-1.9 4.1-4.6v-4.7l1.1-.2v-.6h-3.7v.6l1.2.2s.1 2.1.1 4.6c0 2.4-.3 3.7-2.6 3.7-2 0-2.5-1.2-2.5-3.3v-5.1l1.3-.2v-.6h-4.3v.6l1.1.2v5.2c0 2.9 1.2 4.2 4.2 4.2m-14.5-.2h4.7v-.6l-1.4-.2v-8.1h2.2l.4 1.7.9-.2-.1-2.5H99l-.1 2.5.9.2.5-1.7h2.2V79l-1.4.2v.6zm-11.4 0h7.6l.5-2.6-.9-.1-.9 1.7h-3.2v-8.1l1.2-.2v-.6h-4.2v.6l1.2.2v8.2l-1.2.2v.7zm-8.1.2c3.2 0 4.1-1.9 4.1-4.6v-4.7l1.1-.2v-.6h-3.7v.6l1.2.2s.1 2.1.1 4.6c0 2.4-.3 3.7-2.6 3.7-2 0-2.5-1.2-2.5-3.3v-5.1l1.3-.2v-.6h-4.3v.6l1.1.2v5.2c0 2.9 1.3 4.2 4.2 4.2m-13.1-.2v-.6l-1.2-.2v-3.7h1l2.4 3.4c.3.4.6 1 .8 1.2h2.7v-.6l-1-.2-3.5-4.7 3.5-3.4 1-.3v-.6h-3.6v.6l1.1.2-3.1 3.4h-1.2v-3.4l1.2-.2v-.6h-4.2v.6l1.2.2v8.2l-1.2.2v.6h4.1zM5.3 56.4h6.6V32.8H5.3v23.6zm16.4 0h6.6V32.8h-6.6v23.6zm16.3 0h6.6V32.8H38v23.6zM2 21.7l4.6 4.6L23.3 9.6 18.7 5 2 21.7zM31.2 5l-4.6 4.6 16.7 16.7 4.6-4.6L31.2 5z" fill="#fff"></path></svg>